<?xml version="1.0" standalone="no"?>
<!DOCTYPE svg PUBLIC "-//W3C//DTD SVG 20010904//EN"
 "http://www.w3.org/TR/2001/REC-SVG-20010904/DTD/svg10.dtd">
<svg version="1.0" xmlns="http://www.w3.org/2000/svg"
 width="512.000000pt" height="512.000000pt" viewBox="0 0 512.000000 512.000000"
 preserveAspectRatio="xMidYMid meet">

<g transform="translate(0.000000,512.000000) scale(0.100000,-0.100000)"
fill="#000000" stroke="none">
<path d="M2564 4931 c-17 -5 -40 -14 -51 -22 -11 -8 -561 -504 -1221 -1103
-824 -747 -1206 -1099 -1218 -1124 -57 -121 68 -256 199 -213 24 8 125 93 294
246 l258 234 5 -1197 c5 -1102 6 -1201 22 -1248 38 -111 138 -228 239 -279
113 -58 46 -56 1536 -53 1544 3 1399 -5 1533 84 68 44 109 88 152 164 61 105
58 44 58 1333 0 677 4 1177 9 1175 5 -1 116 -102 247 -222 132 -120 255 -226
274 -234 91 -38 201 23 217 121 13 83 -1 100 -355 424 -180 165 -716 656
-1192 1092 -476 436 -876 799 -890 806 -36 18 -80 24 -116 16z m859 -1123
l627 -575 0 -1312 c0 -1454 5 -1343 -67 -1398 l-36 -28 -309 -3 -308 -3 0 648
c0 378 -5 677 -10 718 -28 196 -185 366 -375 405 -36 7 -162 10 -372 8 -307
-3 -320 -4 -378 -27 -136 -54 -238 -157 -289 -289 -21 -56 -21 -69 -24 -759
l-3 -703 -298 0 c-291 0 -299 1 -342 23 -31 16 -51 36 -66 67 l-23 44 0 1311
0 1310 726 658 726 657 97 -89 c53 -48 378 -347 724 -663z m-496 -1884 c44
-33 71 -80 78 -137 3 -29 5 -331 3 -672 l-3 -620 -402 -3 -403 -2 0 664 c0
447 4 674 11 693 6 15 20 39 32 52 45 49 62 51 369 48 273 -2 288 -3 315 -23z"/>
</g>
</svg>
